{"accessors" : [{"bufferView" : 0, "byteOffset" : 0, "componentType" : 5123, "count" : 1944, "type" : "SCALAR", "max" : [901], "min" : [0]}, {"bufferView" : 1, "byteOffset" : 0, "componentType" : 5126, "count" : 902, "type" : "VEC3", "max" : [19, 10, 12], "min" : [-19, -10, -32], "name" : "POSITION"}, {"bufferView" : 1, "byteOffset" : 12, "componentType" : 5126, "count" : 902, "type" : "VEC3", "max" : [1.0000044107437134, 1.0000044107437134, 1.0000044107437134], "min" : [-1.0000044107437134, -1.0000044107437134, -1.0000044107437134], "name" : "NORMAL"}, {"bufferView" : 0, "byteOffset" : 3888, "componentType" : 5123, "count" : 3504, "type" : "SCALAR", "max" : [1285], "min" : [0]}, {"bufferView" : 2, "byteOffset" : 0, "componentType" : 5126, "count" : 1286, "type" : "VEC3", "max" : [10, 13.43600082397461, 6.5], "min" : [-7, -6.50700044631958, -22.43600082397461], "name" : "POSITION"}, {"bufferView" : 2, "byteOffset" : 12, "componentType" : 5126, "count" : 1286, "type" : "VEC3", "max" : [1.0000044107437134, 1.0000044107437134, 1.0000044107437134], "min" : [-1.0000044107437134, -1.0000044107437134, -1.0000044107437134], "name" : "NORMAL"}, {"bufferView" : 0, "byteOffset" : 10896, "componentType" : 5123, "count" : 3504, "type" : "SCALAR", "max" : [1291], "min" : [0]}, {"bufferView" : 3, "byteOffset" : 0, "componentType" : 5126, "count" : 1292, "type" : "VEC3", "max" : [7, 13.43600082397461, 6.5], "min" : [-10, -6.50700044631958, -22.43600082397461], "name" : "POSITION"}, {"bufferView" : 3, "byteOffset" : 12, "componentType" : 5126, "count" : 1292, "type" : "VEC3", "max" : [1.0000044107437134, 1.0000044107437134, 1.0000044107437134], "min" : [-1.0000044107437134, -1.0000044107437134, -1.0000044107437134], "name" : "NORMAL"}, {"bufferView" : 0, "byteOffset" : 17904, "componentType" : 5123, "count" : 1542, "type" : "SCALAR", "max" : [756], "min" : [0]}, {"bufferView" : 4, "byteOffset" : 0, "componentType" : 5126, "count" : 757, "type" : "VEC3", "max" : [6, 15.532299995422363, 7.650199890136719], "min" : [-6, -13, -4.612800121307373], "name" : "POSITION"}, {"bufferView" : 4, "byteOffset" : 12, "componentType" : 5126, "count" : 757, "type" : "VEC3", "max" : [1.0000044107437134, 0.9902734756469727, 1.0000044107437134], "min" : [-1.0000044107437134, -1.0000044107437134, -1.0000044107437134], "name" : "NORMAL"}, {"bufferView" : 0, "byteOffset" : 20988, "componentType" : 5123, "count" : 9708, "type" : "SCALAR", "max" : [2123], "min" : [0]}, {"bufferView" : 5, "byteOffset" : 0, "componentType" : 5126, "count" : 2124, "type" : "VEC3", "max" : [13, 13, 4], "min" : [-13, -13, -24], "name" : "POSITION"}, {"bufferView" : 5, "byteOffset" : 12, "componentType" : 5126, "count" : 2124, "type" : "VEC3", "max" : [1.0000044107437134, 1.0000044107437134, 1.0000044107437134], "min" : [-1.0000044107437134, -1.0000044107437134, -1.0000044107437134], "name" : "NORMAL"}, {"bufferView" : 0, "byteOffset" : 40404, "componentType" : 5123, "count" : 2004, "type" : "SCALAR", "max" : [763], "min" : [0]}, {"bufferView" : 6, "byteOffset" : 0, "componentType" : 5126, "count" : 764, "type" : "VEC3", "max" : [18, 10, 11], "min" : [-18, -10, -21.00018882751465], "name" : "POSITION"}, {"bufferView" : 6, "byteOffset" : 12, "componentType" : 5126, "count" : 764, "type" : "VEC3", "max" : [1.0000044107437134, 1.0000044107437134, 1.0000044107437134], "min" : [-1.0000044107437134, -1.0000044107437134, -1.0000044107437134], "name" : "NORMAL"}, {"bufferView" : 0, "byteOffset" : 44412, "componentType" : 5123, "count" : 1818, "type" : "SCALAR", "max" : [719], "min" : [0]}, {"bufferView" : 7, "byteOffset" : 0, "componentType" : 5126, "count" : 720, "type" : "VEC3", "max" : [-1.5, 11, 9], "min" : [-19.5, -9, -28], "name" : "POSITION"}, {"bufferView" : 7, "byteOffset" : 12, "componentType" : 5126, "count" : 720, "type" : "VEC3", "max" : [1.0000044107437134, 1.0000044107437134, 1.0000044107437134], "min" : [-1.0000044107437134, -1.0000044107437134, -1.0000044107437134], "name" : "NORMAL"}, {"bufferView" : 0, "byteOffset" : 48048, "componentType" : 5123, "count" : 1818, "type" : "SCALAR", "max" : [719], "min" : [0]}, {"bufferView" : 8, "byteOffset" : 0, "componentType" : 5126, "count" : 720, "type" : "VEC3", "max" : [19.5, 11, 9], "min" : [1.5, -9, -28], "name" : "POSITION"}, {"bufferView" : 8, "byteOffset" : 12, "componentType" : 5126, "count" : 720, "type" : "VEC3", "max" : [1.0000044107437134, 1.0000044107437134, 1.0000044107437134], "min" : [-1.0000044107437134, -1.0000044107437134, -1.0000044107437134], "name" : "NORMAL"}], "asset" : {"generator" : "Aspose.3D 21.5.1", "version" : "2.0"}, "buffers" : [{"uri" : "data:application/octet-stream;base64,", "byteLength" : 671928}], "bufferViews" : [{"buffer" : 0, "byteOffset" : 0, "byteLength" : 51684, "target" : 34963}, {"buffer" : 0, "byteOffset" : 51688, "byteLength" : 46656, "byteStride" : 24, "target" : 34962}, {"buffer" : 0, "byteOffset" : 98348, "byteLength" : 84096, "byteStride" : 24, "target" : 34962}, {"buffer" : 0, "byteOffset" : 182448, "byteLength" : 84096, "byteStride" : 24, "target" : 34962}, {"buffer" : 0, "byteOffset" : 266548, "byteLength" : 37008, "byteStride" : 24, "target" : 34962}, {"buffer" : 0, "byteOffset" : 303560, "byteLength" : 232992, "byteStride" : 24, "target" : 34962}, {"buffer" : 0, "byteOffset" : 536556, "byteLength" : 48096, "byteStride" : 24, "target" : 34962}, {"buffer" : 0, "byteOffset" : 584656, "byteLength" : 43632, "byteStride" : 24, "target" : 34962}, {"buffer" : 0, "byteOffset" : 628292, "byteLength" : 43632, "byteStride" : 24, "target" : 34962}], "materials" : [{"pbrMetallicRoughness" : {"baseColorFactor" : [1, 1, 1, 1], "metallicFactor" : 0.20183488726615906, "roughnessFactor" : 0.2844037413597107}, "emissiveFactor" : [0, 0, 0], "alphaMode" : "OPAQUE", "doubleSided" : true}, {"pbrMetallicRoughness" : {"baseColorFactor" : [1, 1, 1, 1], "metallicFactor" : 0.20183488726615906, "roughnessFactor" : 0.2844037413597107}, "emissiveFactor" : [0, 0, 0], "alphaMode" : "OPAQUE", "doubleSided" : true}, {"pbrMetallicRoughness" : {"baseColorFactor" : [1, 1, 1, 1], "metallicFactor" : 0.20183488726615906, "roughnessFactor" : 0.2844037413597107}, "emissiveFactor" : [0, 0, 0], "alphaMode" : "OPAQUE", "doubleSided" : true}, {"pbrMetallicRoughness" : {"baseColorFactor" : [1, 1, 1, 1], "metallicFactor" : 0.20183488726615906, "roughnessFactor" : 0.2844037413597107}, "emissiveFactor" : [0, 0, 0], "alphaMode" : "OPAQUE", "doubleSided" : true}, {"pbrMetallicRoughness" : {"baseColorFactor" : [1, 1, 1, 1], "metallicFactor" : 0.20183488726615906, "roughnessFactor" : 0.2844037413597107}, "emissiveFactor" : [0, 0, 0], "alphaMode" : "OPAQUE", "doubleSided" : true}, {"pbrMetallicRoughness" : {"baseColorFactor" : [1, 1, 1, 1], "metallicFactor" : 0.20183488726615906, "roughnessFactor" : 0.2844037413597107}, "emissiveFactor" : [0, 0, 0], "alphaMode" : "OPAQUE", "doubleSided" : true}, {"pbrMetallicRoughness" : {"baseColorFactor" : [1, 1, 1, 1], "metallicFactor" : 0.20183488726615906, "roughnessFactor" : 0.2844037413597107}, "emissiveFactor" : [0, 0, 0], "alphaMode" : "OPAQUE", "doubleSided" : true}, {"pbrMetallicRoughness" : {"baseColorFactor" : [1, 1, 1, 1], "metallicFactor" : 0.20183488726615906, "roughnessFactor" : 0.2844037413597107}, "emissiveFactor" : [0, 0, 0], "alphaMode" : "OPAQUE", "doubleSided" : true}], "meshes" : [{"primitives" : [{"attributes" : {"POSITION" : 1, "NORMAL" : 2}, "indices" : 0, "material" : 0, "mode" : 4}]}, {"primitives" : [{"attributes" : {"POSITION" : 4, "NORMAL" : 5}, "indices" : 3, "material" : 1, "mode" : 4}]}, {"primitives" : [{"attributes" : {"POSITION" : 7, "NORMAL" : 8}, "indices" : 6, "material" : 2, "mode" : 4}]}, {"primitives" : [{"attributes" : {"POSITION" : 10, "NORMAL" : 11}, "indices" : 9, "material" : 3, "mode" : 4}]}, {"primitives" : [{"attributes" : {"POSITION" : 13, "NORMAL" : 14}, "indices" : 12, "material" : 4, "mode" : 4}]}, {"primitives" : [{"attributes" : {"POSITION" : 16, "NORMAL" : 17}, "indices" : 15, "material" : 5, "mode" : 4}]}, {"primitives" : [{"attributes" : {"POSITION" : 19, "NORMAL" : 20}, "indices" : 18, "material" : 6, "mode" : 4}]}, {"primitives" : [{"attributes" : {"POSITION" : 22, "NORMAL" : 23}, "indices" : 21, "material" : 7, "mode" : 4}]}], "nodes" : [{"matrix" : [0.9934209585189819, 0, 0, 0, 0, 0.987500011920929, 0, 0, 0, 0, 0.9943180084228516, 0, -2.5946428650058806E-06, -0.0005291352281346917, 31.844654083251953, 1], "mesh" : 0, "name" : "Object.015"}, {"children" : [0], "matrix" : [1, 8.74227694680485E-08, 0, 0, -8.74227694680485E-08, 1, 0, 0, 0, 0, -1, 0, 0, 0, 0, 1], "name" : "Inner-Node-minifigure_dot_mo-1.001"}, {"matrix" : [0.9708380457884117, 0, 0.1681608622291222, 0, 0, 0.9874639511108398, 0, 0, -0.1691961244337844, 0, 0.9768148939225717, 0, 15.505282402038574, 0.04290119186043739, 22.96169662475586, 1], "mesh" : 1, "name" : "Object.016"}, {"children" : [2], "matrix" : [1, 8.74227694680485E-08, 0, 0, -8.74227694680485E-08, 1, 0, 0, 0, 0, -1, 0, 0, 0, 0, 1], "name" : "Inner-Node-minifigure_dot_mo-2.001"}, {"matrix" : [0.9710019627139791, 0, -0.16720720547785098, 0, 0, 0.9874639511108398, 0, 0, 0.16823679972019479, 0, 0.9769809994860952, 0, -15.608025550842285, 0.04290023818612099, 22.93017578125, 1], "mesh" : 2, "name" : "Object.017"}, {"children" : [4], "matrix" : [1, 8.74227694680485E-08, 0, 0, -8.74227694680485E-08, 1, 0, 0, 0, 0, -1, 0, 0, 0, 0, 1], "name" : "Inner-Node-minifigure_dot_mo-3.001"}, {"matrix" : [0.9709068679569064, 0.11749822702113666, -0.047963392186099435, 0, -0.1189467632164724, 0.700911059986274, -0.6907439397046222, 0, -0.04798531889818157, 0.682643977027454, 0.7009549907936276, 0, -23.72934913635254, 9.528889656066895, 5.132789611816406, 1], "mesh" : 3, "name" : "Object.018"}, {"children" : [6], "matrix" : [1, 8.74227694680485E-08, 0, 0, -8.74227694680485E-08, 1, 0, 0, 0, 0, -1, 0, 0, 0, 0, 1], "name" : "Inner-Node-minifigure_dot_mo-4.001"}, {"matrix" : [0.9708129611365346, -0.11816812194295634, 0.048228684947610914, 0, 0.11962485836188103, 0.7009109466819734, -0.6906270156308258, 0, 0.048250680082875655, 0.6825280092583033, 0.7010489351256245, 0, 23.644062042236328, 10.028887748718262, 5.172297954559326, 1], "mesh" : 3, "name" : "Object.019"}, {"children" : [8], "matrix" : [1, 8.74227694680485E-08, 0, 0, -8.74227694680485E-08, 1, 0, 0, 0, 0, -1, 0, 0, 0, 0, 1], "name" : "Inner-Node-minifigure_dot_mo-5.001"}, {"matrix" : [0.9903849959373474, 0, 0, 0, 0, 0.9903849959373474, 0, 0, 0, 0, 0.9910709261894226, 0, -2.594642637632205E-06, -0.0005291352281346917, 55.81218719482422, 1], "mesh" : 4, "name" : "Object.020"}, {"children" : [10], "matrix" : [1, 8.74227694680485E-08, 0, 0, -8.74227694680485E-08, 1, 0, 0, 0, 0, -1, 0, 0, 0, 0, 1], "name" : "Inner-Node-minifigure_dot_mo-6.001"}, {"mesh" : 5, "name" : "Object.012"}, {"children" : [12], "matrix" : [1, 0, 0, 0, 0, 1, 0, 0, 0, 0, 1, 0, 0, 10.999999046325684, -39.99998474121094, 1], "name" : "Inner-Node-1-3815c01_dot_dat-0.002"}, {"matrix" : [1, 0, 0, 0, 0, 1, 0, 0, 0, 0, 1, 0, 0, 0, -12, 1], "mesh" : 6, "name" : "Object.013"}, {"children" : [14], "matrix" : [1, 0, 0, 0, 0, 1, 0, 0, 0, 0, 1, 0, 0, 10.999999046325684, -39.99998474121094, 1], "name" : "Inner-Node-1-3815c01_dot_dat-1.002"}, {"matrix" : [1, 0, 0, 0, 0, 1, 0, 0, 0, 0, 1, 0, 0, 0, -12, 1], "mesh" : 7, "name" : "Object.014"}, {"children" : [16], "matrix" : [1, 0, 0, 0, 0, 1, 0, 0, 0, 0, 1, 0, 0, 10.999999046325684, -39.99998474121094, 1], "name" : "Inner-Node-1-3815c01_dot_dat-2.002"}, {"children" : [13, 15, 17], "matrix" : [1, 8.74227694680485E-08, 0, 0, -8.74227694680485E-08, 1, 0, 0, 0, -0, -1, 0, 0, -11, -40, 1], "name" : "Node-1-3815c01_dot_dat.001"}, {"children" : [1, 3, 5, 7, 9, 11, 18], "matrix" : [0.03999999636764705, -1.7364681293492424E-09, 1.7364681293492424E-09, 0, 1.7364681293492424E-09, -1.3691416405453986E-09, -0.03999999773678869, 0, -1.7364681293492424E-09, -0.03999999773678869, -1.3691416405453986E-09, 0, 0, 1.6134033203125, 0, 1], "name" : "Model"}], "scene" : 0, "scenes" : [{"nodes" : [19]}]}